<svg xmlns="http://www.w3.org/2000/svg" xmlns:xlink="http://www.w3.org/1999/xlink" width="120" zoomAndPan="magnify" viewBox="0 0 90 30.000001" height="40" preserveAspectRatio="xMidYMid meet" version="1.0"><defs><g/><clipPath id="7ad5922085"><path d="M 53.558594 7.941406 L 62.269531 7.941406 L 62.269531 16.144531 L 53.558594 16.144531 Z M 53.558594 7.941406 " clip-rule="nonzero"/></clipPath><clipPath id="5d3c64d019"><path d="M 57.914062 16.144531 L 53.558594 7.941406 L 62.269531 7.941406 Z M 57.914062 16.144531 " clip-rule="nonzero"/></clipPath></defs><g fill="#000000" fill-opacity="1"><g transform="translate(2.739594, 20.348502)"><g><path d="M 1.300781 0 L 4.855469 0 L 4.855469 -3.042969 L 6.492188 -3.042969 C 9.625 -3.042969 11.613281 -4.855469 11.613281 -7.691406 C 11.613281 -10.523438 9.625 -12.320312 6.492188 -12.320312 L 1.300781 -12.320312 Z M 4.820312 -6.019531 L 4.820312 -9.328125 L 6.160156 -9.328125 C 7.339844 -9.328125 8.023438 -8.695312 8.023438 -7.671875 C 8.023438 -6.632812 7.339844 -6.019531 6.160156 -6.019531 Z M 4.820312 -6.019531 "/></g></g></g><g fill="#000000" fill-opacity="1"><g transform="translate(14.756499, 20.348502)"><g><path d="M 5.964844 0.265625 C 9.1875 0.265625 11.367188 -1.726562 11.367188 -4.664062 C 11.367188 -7.585938 9.1875 -9.574219 5.964844 -9.574219 C 2.726562 -9.574219 0.546875 -7.585938 0.546875 -4.664062 C 0.546875 -1.726562 2.726562 0.265625 5.964844 0.265625 Z M 3.855469 -4.664062 C 3.855469 -5.894531 4.734375 -6.773438 5.964844 -6.773438 C 7.199219 -6.773438 8.058594 -5.894531 8.058594 -4.664062 C 8.058594 -3.414062 7.199219 -2.535156 5.964844 -2.535156 C 4.734375 -2.535156 3.855469 -3.414062 3.855469 -4.664062 Z M 3.855469 -4.664062 "/></g></g></g><g fill="#000000" fill-opacity="1"><g transform="translate(26.667843, 20.348502)"><g><path d="M 1.179688 0 L 4.558594 0 L 4.558594 -3.976562 C 4.558594 -5.5625 5.246094 -6.28125 6.757812 -6.28125 L 7.832031 -6.28125 L 7.832031 -9.308594 L 6.738281 -9.308594 C 5.4375 -9.308594 4.609375 -8.957031 4.03125 -8.148438 L 3.609375 -9.308594 L 1.179688 -9.308594 Z M 1.179688 0 "/></g></g></g><g fill="#000000" fill-opacity="1"><g transform="translate(35.042731, 20.348502)"><g><path d="M 5.914062 0 L 7.796875 0 L 7.796875 -2.851562 L 6.828125 -2.851562 C 5.84375 -2.851562 5.386719 -3.289062 5.386719 -4.257812 L 5.386719 -6.652344 L 7.671875 -6.652344 L 7.671875 -9.308594 L 5.386719 -9.308594 L 5.386719 -11.753906 L 2.761719 -11.753906 L 2.585938 -10.542969 C 2.445312 -9.574219 2.183594 -9.308594 1.125 -9.308594 L 0.28125 -9.308594 L 0.28125 -6.652344 L 2.007812 -6.652344 L 2.007812 -3.609375 C 2.007812 -1.25 3.359375 0 5.914062 0 Z M 5.914062 0 "/></g></g></g><g fill="#000000" fill-opacity="1"><g transform="translate(43.52319, 20.348502)"><g><path d="M 4.046875 0 L 7.585938 0 L 9.820312 -6.847656 L 12.054688 0 L 15.59375 0 L 19.550781 -12.320312 L 15.820312 -12.320312 L 14.957031 -9.574219 L 13.691406 -5.632812 L 11.507812 -12.320312 L 8.128906 -12.320312 L 7.214844 -9.574219 L 5.964844 -5.738281 L 4.714844 -9.574219 L 3.855469 -12.320312 L 0.0898438 -12.320312 Z M 4.046875 0 "/></g></g></g><g fill="#000000" fill-opacity="1"><g transform="translate(63.15843, 20.348502)"><g><path d="M 5.808594 0.265625 C 8.21875 0.265625 10.066406 -0.933594 10.894531 -3.007812 L 7.621094 -3.007812 C 7.25 -2.570312 6.597656 -2.289062 5.878906 -2.289062 C 4.925781 -2.289062 4.136719 -2.796875 3.890625 -3.820312 L 11.070312 -3.820312 C 11.246094 -7.285156 9.152344 -9.574219 5.824219 -9.574219 C 2.710938 -9.574219 0.546875 -7.566406 0.546875 -4.664062 C 0.546875 -1.742188 2.691406 0.265625 5.808594 0.265625 Z M 3.90625 -5.648438 C 4.1875 -6.546875 4.925781 -7.039062 5.859375 -7.039062 C 6.882812 -7.039062 7.566406 -6.511719 7.847656 -5.648438 Z M 3.90625 -5.648438 "/></g></g></g><g fill="#000000" fill-opacity="1"><g transform="translate(74.753072, 20.348502)"><g><path d="M 7.179688 0.265625 C 9.996094 0.265625 11.949219 -1.742188 11.949219 -4.664062 C 11.949219 -7.550781 9.996094 -9.574219 7.179688 -9.574219 C 6.175781 -9.574219 5.28125 -9.308594 4.558594 -8.835938 L 4.558594 -13.023438 L 1.179688 -13.023438 L 1.179688 0 L 3.609375 0 L 3.941406 -0.933594 C 4.769531 -0.175781 5.878906 0.265625 7.179688 0.265625 Z M 4.433594 -4.664062 C 4.433594 -5.894531 5.28125 -6.773438 6.527344 -6.773438 C 7.777344 -6.773438 8.625 -5.894531 8.625 -4.664062 C 8.625 -3.414062 7.777344 -2.535156 6.527344 -2.535156 C 5.28125 -2.535156 4.433594 -3.414062 4.433594 -4.664062 Z M 4.433594 -4.664062 "/></g></g></g><g clip-path="url(#7ad5922085)"><g clip-path="url(#5d3c64d019)"><path fill="#000000" d="M 62.269531 16.144531 L 53.558594 16.144531 L 53.558594 7.941406 L 62.269531 7.941406 Z M 62.269531 16.144531 " fill-opacity="1" fill-rule="nonzero"/></g></g></svg>